<svg width="20" height="20" viewBox="0 0 20 20" fill="none" xmlns="http://www.w3.org/2000/svg">
<g clip-path="url(#clip0_515_2920)">
<path d="M5.03327 6.47665C2.98354 6.94042 1.95867 7.17231 1.71484 7.9564C1.47101 8.7405 2.1697 9.55752 3.56707 11.1916L3.92859 11.6143C4.32568 12.0787 4.52423 12.3108 4.61354 12.5981C4.70286 12.8853 4.67285 13.1951 4.61281 13.8146L4.55816 14.3786C4.34689 16.5588 4.24126 17.6489 4.87962 18.1335C5.51797 18.6181 6.47755 18.1762 8.39672 17.2926L8.89323 17.064C9.4386 16.8129 9.71128 16.6873 10.0003 16.6873C10.2894 16.6873 10.5621 16.8129 11.1074 17.064L11.6039 17.2926C13.5231 18.1762 14.4827 18.6181 15.121 18.1335C15.7594 17.6489 15.6538 16.5588 15.4425 14.3786M16.4336 11.1916C17.831 9.55752 18.5296 8.7405 18.2858 7.9564C18.042 7.17231 17.0171 6.94042 14.9674 6.47665L14.4371 6.35667C13.8546 6.22488 13.5634 6.15898 13.3295 5.98147C13.0957 5.80395 12.9457 5.53491 12.6458 4.99682L12.3727 4.50694C11.3171 2.6134 10.7894 1.66663 10.0003 1.66663C9.21127 1.66663 8.6835 2.6134 7.62796 4.50694" stroke="#F6F6F6" stroke-opacity="0.87" stroke-width="1.5" stroke-linecap="round"/>
</g>
<defs>
<clipPath id="clip0_515_2920">
<rect width="20" height="20" rx="5" fill="white"/>
</clipPath>
</defs>
</svg>
